# xmcd
#
# Track frame offsets: 
#        150
#        11547
#        22022
#        35588
#        48907
#        66270
#        77233
#        91538
#        103589
#        113051
#
# Disc length: 1664 seconds
#
# Revision: 0
# Processed by: cddbd v1.5.1PL0 Copyright (c) Steve Scherf et al.
# Submitted via: ExactAudioCopy v0.95a5
#
DISCID=73067e0a
DTITLE=Various Artist - Gospels Greatest
DYEAR=2002
DGENRE=Gospel
TTITLE0=Ernie ashworth/Rock Of Ages
TTITLE1=Mickey Gilley/When Roll Is Called Up Yonder
TTITLE2=Dorsey Burnette/Noah's Ark
TTITLE3=Gogi Grant/Suddenly There's A Valley
TTITLE4=Jeannie C. Riley/Amazing Grace
TTITLE5=Porter Wagoner/What Would You Do
TTITLE6=Gatlin Brothers/In The Garden
TTITLE7=Lee Greenwood/You'll Never Walk Alone
TTITLE8=Etta James/Jesus Is My Kind Of People
TTITLE9=J.D. Sumner and The Stamps/I John Saw
EXTD=
EXTT0=
EXTT1=
EXTT2=
EXTT3=
EXTT4=
EXTT5=
EXTT6=
EXTT7=
EXTT8=
EXTT9=
PLAYORDER=
